<svg width="748" height="748" viewBox="0 0 748 748" fill="none" xmlns="http://www.w3.org/2000/svg">
<circle cx="374" cy="374" r="374" fill="#202064"/>
<path d="M435.05 351.175C435.05 351.175 467.825 403.701 499.147 432.639C530.469 461.576 566.928 491.221 544.848 545.66C522.768 600.098 457.689 622.392 341.313 619.547C224.937 616.702 183.847 616.083 158.324 558.35C132.801 500.617 217.745 487.669 275.769 470.117C333.792 452.565 435.05 351.175 435.05 351.175Z" fill="#E3E5FC"/>
<path opacity="0.49" d="M440.647 465.841C440.647 465.841 456.609 527.455 399.699 542.08C342.788 556.711 236.597 554.557 196.619 526.09C156.641 497.624 440.647 465.841 440.647 465.841Z" fill="url(#paint0_linear_55_6293)"/>
<path d="M588.8 572.504C594.435 569.034 597.121 561.431 594.917 555.192C591.31 544.996 581.986 548.433 575.359 543.078C567.553 536.774 576.992 526.858 576.471 519.414C575.901 511.224 568.528 503.314 566.308 495.398C561.216 477.205 581.898 490.783 587.797 488.661C590.263 487.773 591.88 485.296 592.451 482.73C593.898 476.191 591.146 470.906 594.725 464.717C598.184 458.742 603.293 456.045 601.819 447.932C600.985 443.339 598.151 439.129 598.223 434.459C598.245 433.121 598.623 431.619 599.79 430.967C600.679 430.468 601.786 430.605 602.745 430.939C605.93 432.058 608.024 435.029 610.589 437.227C613.155 439.425 617.277 440.784 619.738 438.471C621.377 436.931 621.536 434.442 621.871 432.217C622.468 428.204 625.286 425.419 628.783 427.738C632.593 430.265 631.135 440.214 630.559 443.783C629.649 449.44 628.268 455.316 629.951 460.798C632.73 469.865 640.327 459.707 643.638 456.703C646.352 454.242 650.885 452.767 653.489 455.338C658.675 460.453 650.337 467.288 649.241 472.134C648.714 474.442 649.394 477.205 651.444 478.389C657.447 481.864 662.517 475.67 663.427 484.917C664.052 491.254 658.318 497.295 661.876 503.632C664.984 509.168 675.328 511.52 671.239 519.287C668.728 524.056 657.918 523.843 658.488 530.629C658.861 535.053 665.51 537.059 665.516 541.499C665.521 544.843 661.629 546.816 658.291 546.986C654.953 547.156 651.433 546.378 648.358 547.682C644.866 549.163 642.844 553.455 643.923 557.095C644.866 560.257 647.81 563.135 646.884 566.304C645.771 570.114 640.492 570.251 636.573 569.642C620.555 567.137 603.403 565.465 588.8 572.504Z" fill="#FDC510"/>
<path d="M619.048 570.925C618.477 570.925 618.022 570.464 618.022 569.9V498.435C618.022 497.871 618.483 497.41 619.048 497.41C619.618 497.41 620.073 497.871 620.073 498.435V569.894C620.073 570.464 619.618 570.925 619.048 570.925Z" fill="white"/>
<path d="M619.048 543.111C618.817 543.111 618.593 543.034 618.401 542.881C617.962 542.524 617.891 541.877 618.253 541.433L636.995 518.328C637.356 517.884 638.003 517.824 638.442 518.18C638.88 518.536 638.952 519.183 638.59 519.627L619.848 542.733C619.64 542.979 619.349 543.111 619.048 543.111Z" fill="white"/>
<path d="M619.048 523.596C618.812 523.596 618.576 523.519 618.384 523.355L596.047 504.558C595.614 504.191 595.559 503.544 595.921 503.111C596.288 502.678 596.935 502.623 597.368 502.985L619.706 521.782C620.139 522.149 620.193 522.796 619.832 523.229C619.629 523.475 619.338 523.596 619.048 523.596Z" fill="white"/>
<path d="M585.675 562.489C588.613 582.02 591.261 602.45 596.206 621.296C596.617 622.864 597.099 624.508 598.097 625.517C599.275 626.706 600.876 626.728 602.351 626.695C610.88 626.498 619.426 627.046 627.955 626.997C636.019 626.953 642.679 627.605 643.523 614.214C643.814 609.571 644.548 562.483 648.83 562.483C648.813 562.489 585.675 562.489 585.675 562.489Z" fill="#978CFF"/>
<path d="M643.063 574.159H591.442C585.023 574.159 579.766 568.908 579.766 562.483V562.483C579.766 556.064 585.017 550.807 591.442 550.807H643.063C649.482 550.807 654.739 556.059 654.739 562.483V562.483C654.739 568.908 649.482 574.159 643.063 574.159Z" fill="#A7ADFF"/>
<path d="M394.228 145.382C394.228 145.382 400.992 160.413 390.424 169.666C379.855 178.919 365.487 171.596 351.542 180.071C337.597 188.545 339.099 198.588 345.496 220.947C353.104 247.544 361.415 246.75 368.886 248.674C376.358 250.603 378.589 271.417 379.433 281.054C380.277 290.691 381.543 297.241 354.919 310.348C328.294 323.455 342.821 343.501 345.49 369.484C348.445 398.225 314.343 414.801 308.429 421.741C302.514 428.681 288.563 429.838 280.955 415.19C273.346 400.543 312.008 389.761 308.631 366.25C305.249 342.739 284.605 326.919 313.768 303.792C342.93 280.665 337.169 262.17 327.45 243.285C317.731 224.401 313.083 217.077 321.108 192.793C329.133 168.51 320.686 175.833 331.249 156.56C341.823 137.292 380.282 116.088 394.228 145.382Z" fill="#4B369D"/>
<path d="M375.837 259.462L377.958 299.034L408.935 310.978C408.935 310.978 390.308 283.723 393.466 259.456C396.623 235.194 375.837 259.462 375.837 259.462Z" fill="#D4A79A"/>
<path d="M447.625 387.837C447.625 387.837 445.569 384.071 439.408 364.732C433.246 345.392 431.021 338.2 422.464 319.486C413.907 300.771 396.102 289.079 396.102 289.079L373.852 287.879C373.852 287.879 371.112 288.049 358.279 298.661C345.441 309.274 333.118 339.571 333.118 339.571L327.642 399.82L366.156 428.231L393.378 438.044C392.068 436.295 391.01 434.442 390.352 432.48C385.791 418.923 401.074 343.846 401.59 337.17C402.105 330.493 415.036 394.168 415.036 394.168L426.235 390.918L433.921 415.404L438.728 390.402L447.625 387.837Z" fill="#F44E4E"/>
<path d="M435.472 420.36L433.915 415.404L431.432 428.319L435.472 420.36Z" fill="url(#paint1_linear_55_6293)"/>
<path d="M415.025 394.168C415.025 394.168 402.094 330.493 401.579 337.17C401.063 343.847 385.781 418.924 390.341 432.48C390.999 434.442 392.057 436.295 393.367 438.044L421.373 448.135L431.432 428.314L433.915 415.399L426.23 390.912L415.025 394.168Z" fill="#FDC510"/>
<path d="M415.025 394.168C415.025 394.168 402.094 330.493 401.579 337.17C401.063 343.847 385.781 418.924 390.341 432.48C390.999 434.442 392.057 436.295 393.367 438.044L421.373 448.135L431.432 428.314L433.915 415.399L426.23 390.912L415.025 394.168Z" fill="#D7384E"/>
<path d="M188.073 370.224L345.32 377.811L375.837 407.368L228.961 403.668L188.073 370.224Z" fill="black"/>
<path d="M336.352 382.58L194.388 372.993C190.551 373.289 187.223 370.707 186.955 367.215L158.346 290.46C158.077 286.974 160.966 283.904 164.798 283.608L306.762 293.201C310.599 292.905 313.927 295.487 314.195 298.979L342.804 375.733C343.078 379.214 340.184 382.284 336.352 382.58Z" fill="#E3E5FC"/>
<path d="M265.131 339.535C266.818 331.775 260.847 323.889 251.794 321.922C242.741 319.954 234.035 324.649 232.348 332.409C230.662 340.169 236.633 348.055 245.686 350.023C254.739 351.99 263.445 347.295 265.131 339.535Z" fill="#A7ADFF"/>
<path d="M123.384 506.521L83.2415 565.312L101.517 580.753L139.758 516.925C139.758 516.919 130.992 507.058 123.384 506.521Z" fill="#D4A79A"/>
<path d="M1.94272 598.103C1.94272 598.103 17.3846 603.376 46.9747 605.569C76.5647 607.767 109.592 608.864 115.594 604.473C121.597 600.082 125.456 562.746 115.594 562.746C105.733 562.746 101.896 577.02 84.5022 564.281C69.603 553.367 57.6968 573.945 31.7521 579.432C5.8073 584.92 -4.70106 587.123 1.94272 598.103Z" fill="#F3AA02"/>
<path d="M373.255 442.95C369.708 436.278 350.511 440.039 327.505 431.482C304.493 422.925 289.632 404.951 263.49 384.241C237.348 363.531 239.135 367.122 227.853 366.267C216.572 365.411 202.605 395.879 194.722 411.973C178.129 445.86 157.129 476.141 125.757 495.842C116.225 501.828 74.224 524.599 67.2074 534.137C52.4288 554.211 125.088 554.381 144.088 556.7C162.896 558.991 173.442 548.307 181.051 531.424C189.734 512.167 199.234 493.321 208.722 474.475C213.469 465.046 218.239 455.623 222.892 446.145C224.899 442.062 229.24 427.239 234.081 425.392C248.969 419.724 268.621 465.107 272.798 475.302C281.212 495.842 312.014 519.808 334.395 522.204C356.777 524.599 373.611 509.711 380.951 487.971C388.296 466.23 373.255 442.95 373.255 442.95Z" fill="#4B369D"/>
<path d="M199.957 510.977L159.815 569.768L178.091 585.21L216.331 521.381C216.326 521.376 207.566 511.514 199.957 510.977Z" fill="#EAC2AB"/>
<path d="M78.5163 602.56C78.5163 602.56 93.9582 607.833 123.548 610.026C153.138 612.224 186.165 613.32 192.168 608.929C198.17 604.538 202.029 567.203 192.168 567.203C182.306 567.203 178.469 581.477 161.076 568.738C146.177 557.824 134.27 578.402 108.326 583.889C82.3809 589.376 71.8671 591.58 78.5163 602.56Z" fill="#FDC510"/>
<path d="M431.361 442.95C427.973 436.278 409.62 440.039 387.628 431.482C365.635 422.925 351.427 404.951 326.436 384.241C301.445 363.531 303.155 367.122 292.373 366.267C281.59 365.411 268.237 395.879 260.705 411.973C237.534 461.478 189.849 494.702 146.451 525.268C143.754 527.165 140.728 529.801 141.287 533.052C141.572 534.707 142.756 536.045 143.967 537.213C160.067 552.753 190.227 559.742 211.902 558.728C233.724 557.709 245.57 539.498 253.815 521.491C268.56 489.275 282.966 456.078 300.88 425.501C307.612 414.023 329.067 460.365 330.931 464.679C342.042 490.443 364.1 518.832 394.222 522.204C415.617 524.599 431.706 509.711 438.728 487.971C445.739 466.23 431.361 442.95 431.361 442.95Z" fill="#5A54FF"/>
<path d="M348.16 175.225C348.16 175.225 331.616 187.427 338.2 214.835C344.783 242.244 365.257 265.65 373.518 264C396.36 259.44 404.369 243.296 412.29 229.444C422.003 212.456 402.719 171.015 402.719 171.015L384.503 161.192L348.16 175.225Z" fill="#EAC2AB"/>
<path d="M381.126 163.116C381.126 163.116 392.622 166.969 402.724 183.157C412.827 199.344 406.2 201.986 406.2 223.688C406.2 230.03 405.01 236.28 401.573 241.685C399.079 245.609 395.521 248.701 392.939 252.549C389.678 257.406 388.636 262.888 388.899 268.682C389.453 280.933 391.41 291.107 402.291 298.025C414.055 305.502 419.542 315.49 422.634 328.986C426.334 345.146 452.975 354.289 462.272 348.122C471.569 341.955 443.837 346.072 449.335 319.48C454.828 292.883 456.713 281.597 440.652 274.207C424.591 266.818 432.265 264.867 440.718 248.679C449.17 232.492 427.381 232.689 435.982 204.513C445.909 171.991 436.913 135.746 388.307 145.766C339.701 155.787 381.126 163.116 381.126 163.116Z" fill="#4B369D"/>
<path d="M369.292 194.065C383.237 185.585 379.86 178.914 390.429 169.666C400.992 160.413 394.233 145.382 394.233 145.382C380.288 116.088 341.829 137.286 331.26 156.56C320.691 175.833 329.149 168.51 321.119 192.793C315.582 209.529 316.076 218.212 320.099 228.178L342.832 237.381C333.628 202.463 358.8 200.44 369.292 194.065Z" fill="#4B369D"/>
<path d="M425.884 419.329C425.884 419.329 425.884 428.741 422.288 427.031C418.692 425.321 384.975 404.265 380.523 399.305C376.072 394.338 365.63 376.369 365.12 372.773C364.605 369.177 366.32 369.007 359.298 370.032C352.282 371.058 339.614 374.999 341.499 377.219C343.38 379.444 348.686 377.904 348.686 377.904C348.686 377.904 342.47 381.84 345.49 382.355C348.511 382.871 357.413 381.155 357.413 383.896C357.413 386.636 356.897 395.879 358.953 400.5C361.009 405.121 363.574 406.661 370.251 408.201C376.928 409.742 378.106 409.226 383.593 414.878C389.08 420.53 419.717 447.741 423.653 449.111C427.589 450.481 429.299 452.877 434.096 444.145C438.892 435.412 442.313 428.741 442.653 415.048C442.993 401.355 441.452 388.177 441.452 388.177L426.219 390.918C426.23 390.918 427.595 406.321 425.884 419.329Z" fill="#EAC2AB"/>
<path d="M475.165 245.456C477.895 232.947 483.99 220.476 488.463 208.466C490.842 202.085 496.066 193.479 496.598 186.643C496.774 184.401 498.911 182.74 501.373 182.932L592.555 176.771C595.016 176.962 596.874 178.93 596.699 181.172L578.324 230.469C578.149 232.711 576.011 234.372 573.55 234.18L500.013 238.878C495.507 241.613 488.359 244.349 483.848 247.073C478.843 250.093 472.66 256.935 475.165 245.456Z" fill="#E3E5FC"/>
<path d="M541.153 214.068L570.782 212.78C572.777 212.692 574.334 210.993 574.246 208.997V208.997C574.158 207.002 572.459 205.445 570.464 205.533L540.835 206.821C538.84 206.909 537.283 208.608 537.371 210.603V210.603C537.458 212.593 539.158 214.15 541.153 214.068Z" fill="white"/>
<path d="M519.846 201.794L573.522 199.465C575.518 199.377 577.075 197.678 576.987 195.682V195.682C576.899 193.687 575.2 192.13 573.205 192.218L519.528 194.548C517.533 194.635 515.976 196.335 516.064 198.33V198.33C516.151 200.32 517.851 201.882 519.846 201.794Z" fill="white"/>
<path d="M208.229 256.66C205.072 242.178 198.017 227.745 192.831 213.843C190.079 206.459 184.028 196.499 183.414 188.584C183.211 185.991 180.739 184.067 177.888 184.291L72.3439 177.16C69.4934 177.379 67.3446 179.659 67.5474 182.252L88.8163 239.316C89.0192 241.909 91.4914 243.833 94.3419 243.609L179.461 249.052C184.68 252.215 192.946 255.389 198.176 258.541C203.97 262.032 211.129 269.953 208.229 256.66Z" fill="#E3E5FC"/>
<path d="M131.848 220.328L97.5543 218.837C95.2465 218.738 93.443 216.765 93.5417 214.457V214.457C93.6404 212.149 95.6138 210.346 97.9216 210.444L132.215 211.935C134.523 212.034 136.326 214.008 136.227 216.315V216.315C136.123 218.623 134.155 220.427 131.848 220.328Z" fill="white"/>
<path d="M156.51 206.125L94.3748 203.428C92.0671 203.329 90.2636 201.356 90.3623 199.048V199.048C90.4609 196.74 92.4343 194.937 94.7421 195.035L156.877 197.732C159.185 197.831 160.988 199.805 160.889 202.112V202.112C160.785 204.42 158.817 206.224 156.51 206.125Z" fill="white"/>
<g opacity="0.72">
<path d="M266.176 172.182C264.142 162.858 259.598 153.567 256.265 144.615C254.495 139.862 250.597 133.449 250.202 128.351C250.071 126.679 248.481 125.446 246.645 125.588L178.689 121C176.852 121.143 175.471 122.612 175.597 124.278L189.29 161.016C189.422 162.688 191.011 163.922 192.848 163.779L247.653 167.282C251.014 169.321 256.336 171.36 259.702 173.388C263.435 175.641 268.04 180.739 266.176 172.182Z" fill="#E3E5FC"/>
<path d="M216.995 148.787L194.914 147.827C193.429 147.762 192.267 146.495 192.332 145.01V145.01C192.398 143.524 193.665 142.362 195.15 142.428L217.23 143.387C218.716 143.453 219.878 144.719 219.812 146.205V146.205C219.746 147.69 218.48 148.852 216.995 148.787Z" fill="white"/>
<path d="M232.875 139.643L192.87 137.905C191.384 137.84 190.222 136.573 190.288 135.088V135.088C190.354 133.602 191.62 132.44 193.105 132.506L233.111 134.244C234.596 134.31 235.758 135.576 235.693 137.061V137.061C235.627 138.547 234.36 139.709 232.875 139.643Z" fill="white"/>
</g>
<path d="M270.315 225.338L236.021 223.847C233.714 223.749 231.91 221.775 232.009 219.467V219.467C232.107 217.16 234.081 215.356 236.389 215.455L270.682 216.946C272.99 217.044 274.793 219.018 274.695 221.326V221.326C274.59 223.633 272.617 225.437 270.315 225.338Z" fill="#E3E5FC"/>
<path d="M273.735 242.096L239.442 240.605C237.134 240.506 235.331 238.533 235.429 236.225V236.225C235.528 233.917 237.501 232.114 239.809 232.212L274.103 233.703C276.41 233.802 278.214 235.775 278.115 238.083V238.083C278.011 240.391 276.043 242.2 273.735 242.096Z" fill="#E3E5FC"/>
<path d="M279.814 259.303L245.521 257.812C243.213 257.713 241.41 255.74 241.509 253.432V253.432C241.607 251.124 243.581 249.321 245.888 249.419L280.182 250.91C282.489 251.009 284.293 252.982 284.194 255.29V255.29C284.096 257.598 282.122 259.401 279.814 259.303Z" fill="#E3E5FC"/>
<defs>
<linearGradient id="paint0_linear_55_6293" x1="460.563" y1="536.653" x2="457.681" y2="446.892" gradientUnits="userSpaceOnUse">
<stop stop-color="#A7ADFF"/>
<stop offset="1" stop-color="#E3E5FC"/>
</linearGradient>
<linearGradient id="paint1_linear_55_6293" x1="452.2" y1="367.177" x2="382.737" y2="342.614" gradientUnits="userSpaceOnUse">
<stop stop-color="#A7ADFF"/>
<stop offset="1" stop-color="#E3E5FC"/>
</linearGradient>
</defs>
</svg>
