<svg width="748" height="748" viewBox="0 0 748 748" fill="none" xmlns="http://www.w3.org/2000/svg">
<circle cx="374" cy="374" r="374" fill="#202064"/>
<path d="M110.096 656.928C106.685 653.53 108.337 629.66 108.872 625.828C111.012 610.472 113.152 595.11 115.293 579.754C119.633 548.6 123.974 517.454 128.308 486.3C128.803 482.742 129.298 479.178 129.799 475.619C130.829 469.694 136.708 465.186 142.854 465.601C149.007 466.009 153.194 471.192 152.164 477.118C139.223 535.779 123.499 594.548 113.922 653.517C113.794 654.313 113.647 655.142 113.106 655.831C111.815 657.436 110.838 657.664 110.096 656.928Z" fill="#E3E5FC"/>
<path d="M253.964 656.306C257.295 652.808 255.101 628.992 254.479 625.179C251.991 609.89 249.503 594.601 247.015 579.312C241.972 548.306 236.923 517.293 231.88 486.287C231.305 482.742 230.73 479.198 230.148 475.653C228.984 469.761 223.005 465.433 216.865 466.035C210.725 466.631 206.659 471.941 207.823 477.827C222.095 536.073 239.143 594.347 250.058 653.002C250.205 653.791 250.373 654.62 250.928 655.289C252.259 656.868 253.242 657.068 253.964 656.306Z" fill="#E3E5FC"/>
<path d="M235.077 493.249H126.83C116.844 493.249 108.671 485.076 108.671 475.091C108.671 465.106 116.844 456.933 126.83 456.933H235.077C245.062 456.933 253.235 465.106 253.235 475.091C253.242 485.083 245.069 493.249 235.077 493.249Z" fill="#A7ADFF"/>
<path d="M497.853 365.466L536.317 278.781C536.926 277.41 538.544 276.788 539.915 277.397L540.584 277.691C541.955 278.3 542.577 279.918 541.968 281.289L503.498 367.974C502.89 369.345 501.271 369.967 499.9 369.358L499.231 369.064C497.867 368.456 497.245 366.837 497.853 365.466Z" fill="#4B369D"/>
<path d="M535.019 276.24L505.016 186.278C504.542 184.853 505.317 183.301 506.742 182.827L507.438 182.592C508.862 182.118 510.414 182.893 510.889 184.318L540.892 274.28C541.366 275.705 540.591 277.256 539.166 277.731L538.47 277.965C537.046 278.433 535.494 277.658 535.019 276.24Z" fill="#4B369D"/>
<path d="M539.34 287.001C543.536 287.001 546.938 283.599 546.938 279.403C546.938 275.207 543.536 271.805 539.34 271.805C535.144 271.805 531.742 275.207 531.742 279.403C531.742 283.599 535.144 287.001 539.34 287.001Z" fill="#A7ADFF"/>
<path d="M497.553 360.156C483.521 360.156 472.151 370.776 472.151 383.885H522.954C522.954 370.776 511.578 360.156 497.553 360.156Z" fill="#E3E5FC"/>
<path d="M512.628 175.965C505.043 168.38 480.725 180.399 458.313 202.811L485.781 230.279C508.193 207.867 520.212 183.549 512.628 175.965Z" fill="#F3AA02"/>
<path d="M456.053 235.128C455.725 235.128 455.391 235.001 455.15 234.74C454.668 234.238 454.688 233.449 455.19 232.967L466.834 221.838C467.336 221.357 468.131 221.377 468.606 221.879C469.088 222.38 469.068 223.169 468.566 223.651L456.922 234.78C456.681 235.014 456.367 235.128 456.053 235.128Z" fill="#E3E5FC"/>
<path d="M469.195 246.745C468.988 246.745 468.774 246.691 468.58 246.584C467.978 246.243 467.764 245.481 468.105 244.879L475.99 230.834C476.324 230.232 477.087 230.018 477.696 230.352C478.297 230.693 478.511 231.456 478.17 232.058L470.285 246.103C470.058 246.518 469.63 246.745 469.195 246.745Z" fill="#E3E5FC"/>
<path d="M443.238 222.159C442.737 222.159 442.262 221.858 442.068 221.364C441.814 220.721 442.135 219.992 442.777 219.738L457.792 213.9C458.44 213.652 459.163 213.966 459.417 214.615C459.671 215.264 459.35 215.986 458.708 216.24L443.693 222.079C443.546 222.133 443.392 222.159 443.238 222.159Z" fill="#E3E5FC"/>
<path d="M630.713 522.142C630.7 522.142 588.411 522.142 588.411 522.142C588.953 525.747 589.481 529.405 590.036 533.064H628.319C628.834 526.984 629.59 522.142 630.713 522.142Z" fill="#4B369D"/>
<path d="M596.731 564.358C597.52 565.153 598.59 565.174 599.58 565.147C605.292 565.02 611.017 565.381 616.735 565.347C622.132 565.321 626.6 565.755 627.162 556.787C627.282 554.894 627.51 542.494 628.312 533.057H590.029C591.474 542.681 593.066 552.379 595.46 561.522C595.741 562.585 596.062 563.682 596.731 564.358Z" fill="#F3AA02"/>
<path d="M609.559 553.891C613.249 553.891 616.24 550.899 616.24 547.209C616.24 543.519 613.249 540.528 609.559 540.528C605.869 540.528 602.877 543.519 602.877 547.209C602.877 550.899 605.869 553.891 609.559 553.891Z" fill="white"/>
<path d="M603.62 517.066C603.62 517.066 589.588 507.649 599.58 501.696C609.572 495.744 608.081 487.511 603.62 486.173C599.159 484.842 612.95 479.385 612.95 479.385C612.95 479.385 603.62 482.548 609.077 486.173C614.528 489.798 628.412 498.72 617.999 501.696C607.592 504.673 628.513 509.595 621.764 515.066C615.023 520.537 603.62 517.066 603.62 517.066Z" fill="#E3E5FC"/>
<path d="M248.747 274.875L237.525 308.757L207.783 311.8C207.783 311.8 230.422 292.532 233.432 270.702C236.441 248.872 248.747 274.875 248.747 274.875Z" fill="#D4A79A"/>
<path d="M296.554 224.42C296.554 224.42 300.3 233.783 288.087 256.041C275.874 278.3 261.047 296.103 254.265 292.712C235.498 283.336 232.362 267.418 228.763 253.5C224.349 236.439 250.921 204.998 250.921 204.998L269.073 200.777L296.554 224.42Z" fill="#EAC2AB"/>
<path d="M319.782 223.959C319.976 223.624 320.163 223.276 320.344 222.922C324.049 215.645 325.454 206.155 323.882 198.129C321.22 184.525 307.556 183.081 296.079 185.542C290.836 186.666 285.927 190.097 280.376 188.318C276.236 186.993 274.142 183.107 270.992 180.466C267.381 177.436 262.859 175.657 258.144 175.162C248.373 174.139 239.384 179.195 234.027 187.187C231.827 190.478 230.415 194.263 230.201 198.216C229.225 196.845 227.834 196.397 226.168 196.718C212.531 199.373 213.314 219.17 213.916 229.557C214.417 238.231 213.929 249.019 219.213 256.45C221.319 259.412 226.844 264.127 230.201 260.837C233.198 257.901 230.857 248.905 231.659 245.053C232.783 239.642 232.288 213.706 259.883 215.659C270.852 216.434 278.583 235.195 288.896 238.458C299.39 241.782 313.937 234.004 319.782 223.959Z" fill="#4B369D"/>
<path d="M234.141 237.883C234.141 237.883 226.489 229.389 227.432 242.451C228.382 255.506 235.244 258.142 235.244 258.142L234.141 237.883Z" fill="#EAC2AB"/>
<path d="M379.24 553.944L396.943 597.698L383.808 605.496L367.89 558.679C367.89 558.679 374.484 553.322 379.24 553.944Z" fill="#EAC2AB"/>
<path d="M457.638 603.938C457.638 603.938 447.833 609.904 427.996 615.609C408.166 621.32 385.854 626.711 381.199 624.37C376.544 622.029 369.033 595.558 375.742 594.18C382.45 592.809 386.924 602.6 397.083 590.963C405.785 580.991 416.573 594.22 434.932 594.581C453.29 594.942 460.721 595.069 457.638 603.938Z" fill="#F3AA02"/>
<path d="M245.791 428.334C254.727 429.344 277.065 439.784 285.298 442.874C302.968 449.509 329.487 487.698 340.241 501.215C352.099 516.116 363.375 521.333 374.036 536.869C381.493 547.644 396.134 550.426 403.685 560.251C409.436 567.735 406.795 567.815 397.973 572.604C385.874 579.172 350.146 613.836 344.642 592.655C342.589 584.743 327.935 567.956 322.598 561.355C310.071 545.858 313.649 522.109 302.908 505.689C297.678 497.697 293.919 488.307 284.803 483.344C277.152 479.178 267.434 479.124 258.312 479.218C245.738 479.338 238.675 457.488 226.095 457.608C209.515 457.769 192.36 473.86 179.064 465.54C156.712 451.542 186.983 450.338 199.489 449.85C224.249 448.894 221.186 425.565 245.791 428.334Z" fill="#4B369D"/>
<path d="M329.266 581.941L350.367 624.129L336.991 632.637L317.588 587.311C317.588 587.311 324.223 581.613 329.266 581.941Z" fill="#EAC2AB"/>
<path d="M411.209 637.378C411.209 637.378 400.441 642.455 379.166 646.448C357.891 650.44 334.035 653.918 329.326 651.223C324.618 648.528 318.786 621.768 325.942 620.966C333.091 620.163 337.037 630.202 348.608 619.555C358.526 610.432 368.826 624.383 388.088 626.263C407.343 628.135 415.141 628.878 411.209 637.378Z" fill="#FDC510"/>
<path d="M226.095 423.907C235.03 425.184 243.277 428.903 251.51 432.829C269.18 441.256 283.954 464.31 294.708 481.472C306.566 500.406 317.843 519.761 328.503 539.491C332.55 546.982 334.208 555.369 337.967 562.913C344.187 575.393 376.337 592.454 355.41 606.573C341.98 615.629 320.752 611.268 305.61 611.215C304.821 611.215 303.971 611.188 303.356 610.7C302.627 610.118 302.473 609.088 302.373 608.158C300.273 588.448 298.266 571.962 289.338 554.111C276.811 534.428 268.116 520.744 257.375 499.897C252.145 489.745 252.5 481.398 243.39 475.098C235.739 469.801 227.847 471.386 218.731 471.5C206.158 471.653 195.363 471.346 182.789 471.5C166.209 471.7 155.381 471.165 146.419 456.732C129.251 429.077 141.463 429.578 153.963 428.963C178.716 427.732 201.489 420.382 226.095 423.907Z" fill="#5A54FF"/>
<path d="M246.219 328.34C246.219 328.34 256.706 368.429 260.759 369.318C264.157 370.061 268.31 369.332 271.735 369.178C278.764 368.857 285.793 368.402 292.809 367.927C304.961 367.098 317.475 366.804 329.513 364.831C336.87 363.627 350.36 361.828 355.931 356.43C363.496 349.113 376.979 365.927 380.798 370.402C381.353 371.051 381.881 372.08 381.253 372.649C380.965 372.91 380.544 372.937 380.156 372.917C377.427 372.803 375.019 371.198 372.772 369.659C374.812 371.967 376.504 374.582 377.768 377.391C375.28 376.441 373.127 374.776 370.672 373.753C360.794 369.646 352.788 384.019 341.719 378.902C334.295 375.471 325.922 377.819 318.204 378.675C311.255 379.444 304.299 380.16 297.337 380.835C284.322 382.106 270.711 384.313 257.603 383.805C256.8 383.771 255.89 383.865 255.108 383.604C250.988 382.213 243.136 364.556 237.304 349.16C233.626 339.449 228.857 329.002 232.275 313.8C235.418 299.862 250.058 306.156 246.219 328.34Z" fill="#EAC2AB"/>
<path d="M228.456 356.511C230.369 348.786 232.823 341.355 235.639 334.473C240.053 323.685 247.965 309.011 241.21 297.468C240.26 295.843 239.217 294.204 237.632 292.987C219.989 279.437 192.614 305.279 181.204 318.81C166.825 335.858 166.316 343.134 160.223 363.172C153.455 385.423 147.382 408.725 137.129 429.906C136.026 432.193 135.116 435.317 137.47 436.848C138.541 437.544 139.952 437.624 141.269 437.624C150.425 437.611 159.2 435.096 167.821 432.675C181.478 428.843 180.876 427.338 195.169 429.832C200.78 430.809 206.111 429.137 211.796 429.09C213.2 429.077 218.778 428.428 219.969 427.873C229.265 423.546 217.929 421.011 217.467 419.874C208.913 398.706 222.818 379.284 228.456 356.511Z" fill="#D7384E"/>
<path d="M250.159 341.522C250.159 341.522 251.837 293.013 230.094 296.578C208.351 300.143 217.36 354.818 217.36 354.818L252.881 348.498L250.159 341.522Z" fill="#F44E4E"/>
<path d="M293.745 656.814C290.475 652.226 293.237 618.438 293.953 612.994C296.815 591.19 299.678 569.38 302.54 547.577C308.345 503.348 314.151 459.12 319.956 414.891C320.618 409.835 321.28 404.779 321.949 399.723C323.26 391.302 329.38 384.581 335.553 384.788C341.726 384.995 345.699 392.051 344.388 400.472C328.651 484.047 310.118 567.949 297.751 651.758C297.584 652.888 297.397 654.072 296.822 655.075C295.457 657.43 294.461 657.811 293.745 656.814Z" fill="#E3E5FC"/>
<path d="M513.597 656.814C516.868 652.226 514.106 618.438 513.39 612.994C510.528 591.19 507.665 569.38 504.803 547.577C498.997 503.348 493.192 459.12 487.387 414.891C486.725 409.835 486.062 404.779 485.394 399.723C484.083 391.302 477.963 384.581 471.79 384.788C465.617 384.995 461.644 392.051 462.955 400.472C478.692 484.047 497.225 567.949 509.591 651.758C509.758 652.888 509.946 654.072 510.521 655.075C511.892 657.43 512.888 657.811 513.597 656.814Z" fill="#E3E5FC"/>
<path d="M609.084 397.736H245.216C241.404 397.736 238.287 394.62 238.287 390.807C238.287 386.995 241.404 383.878 245.216 383.878H609.084C612.896 383.878 616.013 386.995 616.013 390.807C616.013 394.62 612.896 397.736 609.084 397.736Z" fill="#A7ADFF"/>
<path d="M546.978 360.711C549.399 359.219 550.556 355.949 549.606 353.267C548.055 348.879 544.048 350.357 541.193 348.057C537.835 345.348 541.895 341.081 541.674 337.877C541.427 334.353 538.257 330.955 537.307 327.551C535.12 319.726 544.008 325.565 546.55 324.655C547.613 324.274 548.309 323.204 548.55 322.107C549.172 319.298 547.988 317.024 549.526 314.362C551.011 311.794 553.211 310.63 552.576 307.146C552.215 305.166 550.997 303.36 551.031 301.354C551.038 300.778 551.205 300.13 551.706 299.849C552.088 299.635 552.562 299.695 552.977 299.835C554.348 300.317 555.244 301.594 556.348 302.537C557.451 303.48 559.224 304.069 560.281 303.072C560.983 302.41 561.056 301.34 561.197 300.384C561.458 298.658 562.668 297.461 564.166 298.458C565.805 299.541 565.176 303.822 564.929 305.36C564.534 307.794 563.946 310.322 564.668 312.677C565.865 316.576 569.129 312.208 570.553 310.918C571.717 309.861 573.67 309.226 574.794 310.329C577.021 312.529 573.436 315.466 572.968 317.552C572.74 318.542 573.035 319.733 573.918 320.241C576.499 321.739 578.68 319.07 579.067 323.05C579.335 325.772 576.867 328.374 578.399 331.096C579.736 333.477 584.184 334.487 582.425 337.831C581.341 339.884 576.693 339.79 576.941 342.706C577.101 344.606 579.964 345.475 579.964 347.381C579.964 348.819 578.292 349.669 576.854 349.742C575.416 349.816 573.904 349.481 572.58 350.043C571.075 350.679 570.206 352.524 570.674 354.089C571.075 355.447 572.346 356.691 571.945 358.049C571.463 359.687 569.196 359.748 567.51 359.487C560.635 358.403 553.258 357.688 546.978 360.711Z" fill="#FDC510"/>
<path d="M559.986 360.844C559.291 360.844 558.736 360.283 558.736 359.594V328.862C558.736 328.173 559.297 327.611 559.986 327.611C560.675 327.611 561.237 328.173 561.237 328.862V359.594C561.237 360.283 560.682 360.844 559.986 360.844Z" fill="white"/>
<path d="M559.986 348.879C559.705 348.879 559.431 348.786 559.197 348.599C558.655 348.164 558.575 347.375 559.01 346.833L567.069 336.894C567.51 336.353 568.3 336.279 568.835 336.707C569.37 337.142 569.457 337.931 569.015 338.473L560.956 348.411C560.709 348.726 560.354 348.879 559.986 348.879Z" fill="white"/>
<path d="M559.986 340.492C559.699 340.492 559.411 340.399 559.177 340.198L549.573 332.112C549.044 331.664 548.978 330.875 549.419 330.347C549.867 329.818 550.656 329.751 551.185 330.193L560.789 338.279C561.317 338.727 561.384 339.516 560.943 340.044C560.695 340.339 560.341 340.492 559.986 340.492Z" fill="white"/>
<path d="M545.633 356.404C546.898 364.804 548.035 373.592 550.161 381.691C550.335 382.367 550.549 383.076 550.971 383.504C551.479 384.019 552.168 384.025 552.803 384.012C556.468 383.925 560.147 384.166 563.819 384.146C567.283 384.126 570.152 384.407 570.513 378.648C570.64 376.655 570.955 356.404 572.794 356.404C572.787 356.404 545.633 356.404 545.633 356.404Z" fill="#D7384E"/>
<path d="M570.313 361.426H548.115C545.353 361.426 543.092 359.166 543.092 356.404C543.092 353.641 545.353 351.381 548.115 351.381H570.313C573.075 351.381 575.335 353.641 575.335 356.404C575.335 359.166 573.075 361.426 570.313 361.426Z" fill="#F44E4E"/>
<path d="M414.192 383.123H301.985C300.487 383.123 299.256 381.899 299.256 380.394C299.256 378.896 300.48 377.665 301.985 377.665H414.192C415.69 377.665 416.921 378.889 416.921 380.394C416.914 381.899 415.69 383.123 414.192 383.123Z" fill="#4B369D"/>
<path d="M411.389 379.284L467.496 282.112C468.245 280.814 469.924 280.366 471.221 281.115C472.519 281.864 472.967 283.543 472.218 284.841L416.111 382.012C415.362 383.31 413.683 383.758 412.386 383.009C411.088 382.26 410.64 380.581 411.389 379.284Z" fill="#4B369D"/>
<path d="M663.391 592.655H550.616C544.296 592.655 539.133 587.485 539.133 581.171V576.844C539.133 570.524 544.303 565.361 550.616 565.361H663.391C669.712 565.361 674.875 570.531 674.875 576.844V581.171C674.875 587.492 669.705 592.655 663.391 592.655Z" fill="#A7ADFF"/>
<path d="M679.516 622.337H566.741C560.421 622.337 555.258 617.167 555.258 610.853V606.526C555.258 600.206 560.428 595.043 566.741 595.043H679.516C685.837 595.043 691 600.212 691 606.526V610.853C691.007 617.167 685.837 622.337 679.516 622.337Z" fill="#A7ADFF"/>
<path d="M663.391 652.306H550.616C544.296 652.306 539.133 647.136 539.133 640.823V636.496C539.133 630.175 544.303 625.012 550.616 625.012H663.391C669.712 625.012 674.875 630.182 674.875 636.496V640.823C674.875 647.136 669.705 652.306 663.391 652.306Z" fill="#A7ADFF"/>
<path d="M550.195 581.927C551.924 581.927 553.325 580.526 553.325 578.797C553.325 577.068 551.924 575.667 550.195 575.667C548.466 575.667 547.065 577.068 547.065 578.797C547.065 580.526 548.466 581.927 550.195 581.927Z" fill="white"/>
<path d="M662.97 581.927C664.699 581.927 666.1 580.526 666.1 578.797C666.1 577.068 664.699 575.667 662.97 575.667C661.241 575.667 659.84 577.068 659.84 578.797C659.84 580.526 661.241 581.927 662.97 581.927Z" fill="white"/>
<path d="M565.858 610.539C567.587 610.539 568.988 609.138 568.988 607.409C568.988 605.68 567.587 604.279 565.858 604.279C564.13 604.279 562.728 605.68 562.728 607.409C562.728 609.138 564.13 610.539 565.858 610.539Z" fill="white"/>
<path d="M678.634 610.539C680.362 610.539 681.764 609.138 681.764 607.409C681.764 605.68 680.362 604.279 678.634 604.279C676.905 604.279 675.504 605.68 675.504 607.409C675.504 609.138 676.905 610.539 678.634 610.539Z" fill="white"/>
<path d="M550.824 641.625C552.552 641.625 553.954 640.224 553.954 638.495C553.954 636.767 552.552 635.365 550.824 635.365C549.095 635.365 547.693 636.767 547.693 638.495C547.693 640.224 549.095 641.625 550.824 641.625Z" fill="white"/>
<path d="M663.599 641.625C665.327 641.625 666.729 640.224 666.729 638.495C666.729 636.767 665.327 635.365 663.599 635.365C661.87 635.365 660.469 636.767 660.469 638.495C660.469 640.224 661.87 641.625 663.599 641.625Z" fill="white"/>
</svg>
